<?xml version="1.0" encoding="UTF-8" standalone="no"?>
<!-- Created with Inkscape (http://www.inkscape.org/) -->

<svg
   width="642mm"
   height="130mm"
   viewBox="0 0 642 130"
   version="1.1"
   id="svg1"
   inkscape:version="1.3.2 (091e20e, 2023-11-25)"
   sodipodi:docname="funcionalizate.svg"
   xmlns:inkscape="http://www.inkscape.org/namespaces/inkscape"
   xmlns:sodipodi="http://sodipodi.sourceforge.net/DTD/sodipodi-0.dtd"
   xmlns="http://www.w3.org/2000/svg"
   xmlns:svg="http://www.w3.org/2000/svg">
  <sodipodi:namedview
     id="namedview1"
     pagecolor="#ffffff"
     bordercolor="#000000"
     borderopacity="0.25"
     inkscape:showpageshadow="2"
     inkscape:pageopacity="0.0"
     inkscape:pagecheckerboard="0"
     inkscape:deskcolor="#d1d1d1"
     inkscape:document-units="px"
     inkscape:zoom="0.2102413"
     inkscape:cx="397.16269"
     inkscape:cy="558.88162"
     inkscape:window-width="1512"
     inkscape:window-height="724"
     inkscape:window-x="0"
     inkscape:window-y="419"
     inkscape:window-maximized="0"
     inkscape:current-layer="layer1" />
  <defs
     id="defs1">
    <clipPath
       clipPathUnits="userSpaceOnUse"
       id="clipPath4">
      <path
         d="M 0,1080 H 1920 V 0 H 0 Z"
         transform="translate(-392.68361,-529.94321)"
         id="path4" />
    </clipPath>
    <clipPath
       clipPathUnits="userSpaceOnUse"
       id="clipPath6">
      <path
         d="M 0,1080 H 1920 V 0 H 0 Z"
         transform="translate(-498.81341,-553.56401)"
         id="path6" />
    </clipPath>
    <clipPath
       clipPathUnits="userSpaceOnUse"
       id="clipPath8">
      <path
         d="M 0,1080 H 1920 V 0 H 0 Z"
         transform="translate(-601.84642,-544.00091)"
         id="path8" />
    </clipPath>
    <clipPath
       clipPathUnits="userSpaceOnUse"
       id="clipPath10">
      <path
         d="M 0,1080 H 1920 V 0 H 0 Z"
         transform="translate(-631.61752,-532.44202)"
         id="path10" />
    </clipPath>
    <clipPath
       clipPathUnits="userSpaceOnUse"
       id="clipPath12">
      <path
         d="M 0,1080 H 1920 V 0 H 0 Z"
         id="path12" />
    </clipPath>
    <clipPath
       clipPathUnits="userSpaceOnUse"
       id="clipPath14">
      <path
         d="M 0,1080 H 1920 V 0 H 0 Z"
         transform="translate(-837.18302,-490.03121)"
         id="path14" />
    </clipPath>
    <clipPath
       clipPathUnits="userSpaceOnUse"
       id="clipPath16">
      <path
         d="M 0,1080 H 1920 V 0 H 0 Z"
         transform="translate(-969.571,-544.00091)"
         id="path16" />
    </clipPath>
    <clipPath
       clipPathUnits="userSpaceOnUse"
       id="clipPath18">
      <path
         d="M 0,1080 H 1920 V 0 H 0 Z"
         transform="translate(-1057.053,-523.95952)"
         id="path18" />
    </clipPath>
    <clipPath
       clipPathUnits="userSpaceOnUse"
       id="clipPath20">
      <path
         d="M 0,1080 H 1920 V 0 H 0 Z"
         id="path20" />
    </clipPath>
    <clipPath
       clipPathUnits="userSpaceOnUse"
       id="clipPath22">
      <path
         d="M 0,1080 H 1920 V 0 H 0 Z"
         id="path22" />
    </clipPath>
    <clipPath
       clipPathUnits="userSpaceOnUse"
       id="clipPath24">
      <path
         d="M 0,1080 H 1920 V 0 H 0 Z"
         transform="translate(-1236.756,-484.20991)"
         id="path24" />
    </clipPath>
    <clipPath
       clipPathUnits="userSpaceOnUse"
       id="clipPath26">
      <path
         d="M 0,1080 H 1920 V 0 H 0 Z"
         transform="translate(-1350.5964,-523.95952)"
         id="path26" />
    </clipPath>
    <clipPath
       clipPathUnits="userSpaceOnUse"
       id="clipPath28">
      <path
         d="M 0,1080 H 1920 V 0 H 0 Z"
         transform="translate(-1457.2891,-484.87461)"
         id="path28" />
    </clipPath>
    <clipPath
       clipPathUnits="userSpaceOnUse"
       id="clipPath30">
      <path
         d="M 0,1080 H 1920 V 0 H 0 Z"
         transform="translate(-1531.4629,-516.14251)"
         id="path30" />
    </clipPath>
    <clipPath
       clipPathUnits="userSpaceOnUse"
       id="clipPath32">
      <path
         d="M 0,1080 H 1920 V 0 H 0 Z"
         transform="translate(-1576.6177,-463.83621)"
         id="path32" />
    </clipPath>
  </defs>
  <g
     inkscape:label="Layer 1"
     inkscape:groupmode="layer"
     id="layer1">
    <path
       id="path3"
       d="m 0,0 -15.301,0.004 -0.018,-69.188 -28.44,0.007 0.018,69.189 -10.312,0.002 0.007,23.617 10.311,-0.003 10e-4,2.662 c 0.003,11.418 3.275,20.094 9.82,26.025 6.542,5.929 16.135,8.894 28.775,8.89 2.105,0 3.659,-0.057 4.656,-0.167 L -0.489,36.922 c -5.434,0.335 -9.26,-0.441 -11.476,-2.325 -2.221,-1.887 -3.328,-5.267 -3.329,-10.145 l -10e-4,-0.831 15.301,-0.004 z"
       style="fill:#d109a5;fill-opacity:1;fill-rule:nonzero;stroke:none"
       transform="matrix(0.46600968,0,0,-0.46600968,57.172131,66.341451)"
       clip-path="url(#clipPath4)" />
    <path
       id="path5"
       d="m 0,0 v -92.805 h -28.44 v 12.64 c -2.885,-4.103 -6.794,-7.401 -11.726,-9.896 -4.935,-2.495 -10.394,-3.742 -16.381,-3.742 -7.098,0 -13.363,1.58 -18.795,4.74 -5.434,3.16 -9.645,7.734 -12.639,13.721 -2.995,5.988 -4.492,13.028 -4.492,21.123 V 0 h 28.275 v -50.394 c 0,-6.211 1.606,-11.034 4.823,-14.47 3.215,-3.438 7.538,-5.156 12.972,-5.156 5.544,0 9.923,1.718 13.139,5.156 3.216,3.436 4.824,8.259 4.824,14.47 V 0 Z"
       style="fill:#d109a5;fill-opacity:1;fill-rule:nonzero;stroke:none"
       transform="matrix(0.46600968,0,0,-0.46600968,106.62964,55.333934)"
       clip-path="url(#clipPath6)" />
    <path
       id="path7"
       d="m 0,0 c 6.486,-7.042 9.73,-16.715 9.73,-29.023 v -54.219 h -28.275 v 50.394 c 0,6.208 -1.608,11.032 -4.823,14.47 -3.217,3.435 -7.541,5.156 -12.973,5.156 -5.434,0 -9.757,-1.721 -12.972,-5.156 -3.217,-3.438 -4.824,-8.262 -4.824,-14.47 v -50.394 h -28.44 V 9.563 h 28.44 V -2.744 c 2.882,4.101 6.762,7.344 11.643,9.729 4.877,2.383 10.365,3.576 16.466,3.576 C -15.164,10.561 -6.487,7.04 0,0"
       style="fill:#d109a5;fill-opacity:1;fill-rule:nonzero;stroke:none"
       transform="matrix(0.46600968,0,0,-0.46600968,154.64402,59.790432)"
       clip-path="url(#clipPath8)" />
    <path
       id="path9"
       d="m 0,0 c 3.934,7.206 9.422,12.749 16.464,16.632 7.041,3.88 15.107,5.82 24.201,5.82 11.641,0 21.37,-3.051 29.187,-9.147 7.817,-6.099 12.945,-14.693 15.386,-25.779 H 54.968 C 52.416,-5.38 47.484,-1.83 40.166,-1.83 c -5.214,0 -9.371,-2.024 -12.475,-6.071 -3.105,-4.048 -4.656,-9.841 -4.656,-17.38 0,-7.541 1.551,-13.334 4.656,-17.379 3.104,-4.05 7.261,-6.071 12.475,-6.071 7.318,0 12.25,3.547 14.802,10.644 h 30.27 c -2.441,-10.868 -7.597,-19.405 -15.469,-25.612 -7.874,-6.211 -17.575,-9.314 -29.104,-9.314 -9.094,0 -17.16,1.938 -24.201,5.82 -7.042,3.88 -12.53,9.423 -16.464,16.632 -3.937,7.207 -5.904,15.634 -5.904,25.28 0,9.647 1.967,18.072 5.904,25.281"
       style="fill:#d109a5;fill-opacity:1;fill-rule:nonzero;stroke:none"
       transform="matrix(0.46600968,0,0,-0.46600968,168.51765,65.176988)"
       clip-path="url(#clipPath10)" />
    <path
       id="path11"
       d="m 760.429,460.759 h -28.44 v 92.805 h 28.44 z m -26.362,106.859 c -3.159,2.937 -4.739,6.569 -4.739,10.894 0,4.433 1.58,8.12 4.739,11.06 3.161,2.936 7.235,4.407 12.225,4.407 4.877,0 8.897,-1.471 12.058,-4.407 3.159,-2.94 4.741,-6.627 4.741,-11.06 0,-4.325 -1.582,-7.957 -4.741,-10.894 -3.161,-2.939 -7.181,-4.408 -12.058,-4.408 -4.99,0 -9.064,1.469 -12.225,4.408"
       style="fill:#d109a5;fill-opacity:1;fill-rule:nonzero;stroke:none"
       transform="matrix(0.46600968,0,0,-0.46600968,-125.82224,313.30014)"
       clip-path="url(#clipPath12)" />
    <path
       id="path13"
       d="m 0,0 c 3.824,3.991 5.737,9.7 5.737,17.13 0,7.427 -1.857,13.139 -5.571,17.131 -3.716,3.992 -8.291,5.987 -13.721,5.987 -5.546,0 -10.146,-1.97 -13.804,-5.904 -3.66,-3.937 -5.489,-9.675 -5.489,-17.214 0,-7.43 1.8,-13.139 5.406,-17.13 3.601,-3.992 8.12,-5.988 13.554,-5.988 5.432,0 10.062,1.996 13.888,5.988 m -38.42,-24.782 c -7.264,3.88 -12.972,9.423 -17.131,16.632 -4.157,7.206 -6.236,15.634 -6.236,25.28 0,9.535 2.105,17.934 6.319,25.197 4.213,7.261 9.98,12.833 17.298,16.716 7.318,3.879 15.522,5.82 24.615,5.82 9.09,0 17.296,-1.941 24.614,-5.82 7.318,-3.883 13.082,-9.455 17.298,-16.716 4.212,-7.263 6.319,-15.662 6.319,-25.197 0,-9.537 -2.136,-17.936 -6.403,-25.196 -4.269,-7.264 -10.09,-12.836 -17.463,-16.716 -7.375,-3.882 -15.608,-5.82 -24.698,-5.82 -9.093,0 -17.271,1.938 -24.532,5.82"
       style="fill:#d109a5;fill-opacity:1;fill-rule:nonzero;stroke:none"
       transform="matrix(0.46600968,0,0,-0.46600968,264.31316,84.940835)"
       clip-path="url(#clipPath14)" />
    <path
       id="path15"
       d="m 0,0 c 6.486,-7.042 9.73,-16.715 9.73,-29.023 v -54.219 h -28.275 v 50.394 c 0,6.208 -1.608,11.032 -4.823,14.47 -3.217,3.435 -7.541,5.156 -12.973,5.156 -5.434,0 -9.757,-1.721 -12.972,-5.156 -3.217,-3.438 -4.824,-8.262 -4.824,-14.47 v -50.394 h -28.44 V 9.563 h 28.44 V -2.744 c 2.882,4.101 6.762,7.344 11.643,9.729 4.877,2.383 10.365,3.576 16.466,3.576 C -15.164,10.561 -6.487,7.04 0,0"
       style="fill:#d109a5;fill-opacity:1;fill-rule:nonzero;stroke:none"
       transform="matrix(0.46600968,0,0,-0.46600968,326.00725,59.790432)"
       clip-path="url(#clipPath16)" />
    <path
       id="path17"
       d="m 0,0 c -3.937,4.101 -8.73,6.154 -14.386,6.154 -5.655,0 -10.452,-2.025 -14.386,-6.071 -3.937,-4.049 -5.904,-9.62 -5.904,-16.715 0,-7.097 1.967,-12.723 5.904,-16.881 3.934,-4.158 8.731,-6.237 14.386,-6.237 5.656,0 10.449,2.05 14.386,6.154 3.936,4.101 5.904,9.701 5.904,16.798 C 5.904,-9.703 3.936,-4.103 0,0 m -58.21,8.482 c 3.601,7.206 8.508,12.749 14.719,16.632 6.207,3.88 13.138,5.821 20.789,5.821 6.541,0 12.279,-1.33 17.214,-3.992 4.932,-2.661 8.732,-6.153 11.392,-10.478 v 13.14 H 34.346 V -63.2 H 5.904 v 13.139 c -2.772,-4.325 -6.626,-7.817 -11.558,-10.478 -4.935,-2.661 -10.673,-3.992 -17.214,-3.992 -7.541,0 -14.416,1.967 -20.623,5.905 -6.211,3.934 -11.118,9.534 -14.719,16.797 -3.605,7.261 -5.405,15.66 -5.405,25.197 0,9.535 1.8,17.906 5.405,25.114"
       style="fill:#d109a5;fill-opacity:1;fill-rule:nonzero;stroke:none"
       transform="matrix(0.46600968,0,0,-0.46600968,366.77471,69.129919)"
       clip-path="url(#clipPath18)" />
    <path
       id="path19"
       d="m 1140.459,460.759 h -28.44 v 123.075 h 28.44 z"
       style="fill:#d109a5;fill-opacity:1;fill-rule:nonzero;stroke:none"
       transform="matrix(0.46600968,0,0,-0.46600968,-125.82224,313.30014)"
       clip-path="url(#clipPath20)" />
    <path
       id="path21"
       d="m 1189.522,460.759 h -28.44 v 92.805 h 28.44 z m -26.361,106.859 c -3.159,2.937 -4.739,6.569 -4.739,10.894 0,4.433 1.58,8.12 4.739,11.06 3.161,2.936 7.235,4.407 12.224,4.407 4.878,0 8.898,-1.471 12.059,-4.407 3.159,-2.94 4.74,-6.627 4.74,-11.06 0,-4.325 -1.581,-7.957 -4.74,-10.894 -3.161,-2.939 -7.181,-4.408 -12.059,-4.408 -4.989,0 -9.063,1.469 -12.224,4.408"
       style="fill:#d109a5;fill-opacity:1;fill-rule:nonzero;stroke:none"
       transform="matrix(0.46600968,0,0,-0.46600968,-125.82224,313.30014)"
       clip-path="url(#clipPath22)" />
    <path
       id="path23"
       d="M 0,0 H 40.25 V -23.451 H -31.765 V -0.832 L 6.819,45.903 H -31.434 V 69.354 H 39.418 V 46.735 Z"
       style="fill:#d109a5;fill-opacity:1;fill-rule:nonzero;stroke:none"
       transform="matrix(0.46600968,0,0,-0.46600968,450.51802,87.653611)"
       clip-path="url(#clipPath24)" />
    <path
       id="path25"
       d="m 0,0 c -3.937,4.101 -8.73,6.154 -14.386,6.154 -5.655,0 -10.452,-2.025 -14.386,-6.071 -3.937,-4.049 -5.904,-9.62 -5.904,-16.715 0,-7.097 1.967,-12.723 5.904,-16.881 3.934,-4.158 8.731,-6.237 14.386,-6.237 5.656,0 10.449,2.05 14.386,6.154 3.936,4.101 5.904,9.701 5.904,16.798 C 5.904,-9.703 3.936,-4.103 0,0 m -58.21,8.482 c 3.601,7.206 8.508,12.749 14.719,16.632 6.207,3.88 13.138,5.821 20.789,5.821 6.541,0 12.279,-1.33 17.214,-3.992 4.932,-2.661 8.732,-6.153 11.392,-10.478 v 13.14 H 34.346 V -63.2 H 5.904 v 13.139 c -2.772,-4.325 -6.626,-7.817 -11.558,-10.478 -4.935,-2.661 -10.673,-3.992 -17.214,-3.992 -7.541,0 -14.416,1.967 -20.623,5.905 -6.211,3.934 -11.118,9.534 -14.719,16.797 -3.605,7.261 -5.405,15.66 -5.405,25.197 0,9.535 1.8,17.906 5.405,25.114"
       style="fill:#d109a5;fill-opacity:1;fill-rule:nonzero;stroke:none"
       transform="matrix(0.46600968,0,0,-0.46600968,503.56874,69.129919)"
       clip-path="url(#clipPath26)" />
    <path
       id="path27"
       d="m 0,0 v -24.116 h -14.47 c -10.312,0 -18.352,2.521 -24.116,7.568 -5.767,5.044 -8.649,13.276 -8.649,24.698 v 36.923 h -11.309 v 23.616 h 11.309 v 22.619 h 28.44 V 68.689 H -0.167 V 45.073 H -18.795 V 7.817 c 0,-2.773 0.666,-4.768 1.996,-5.987 C -15.468,0.608 -13.251,0 -10.146,0 Z"
       style="fill:#d109a5;fill-opacity:1;fill-rule:nonzero;stroke:none"
       transform="matrix(0.46600968,0,0,-0.46600968,553.2886,87.343855)"
       clip-path="url(#clipPath28)" />
    <path
       id="path29"
       d="m 0,0 c 0,4.878 -1.663,8.758 -4.989,11.643 -3.327,2.882 -7.484,4.323 -12.473,4.323 -4.769,0 -8.789,-1.387 -12.059,-4.158 C -32.793,9.036 -34.818,5.099 -35.591,0 Z m 28.607,-15.8 h -64.365 c 0.441,-5.767 2.3,-10.174 5.572,-13.222 3.268,-3.051 7.29,-4.574 12.057,-4.574 7.095,0 12.03,2.994 14.802,8.981 h 30.27 c -1.554,-6.099 -4.353,-11.587 -8.398,-16.466 -4.049,-4.88 -9.121,-8.705 -15.218,-11.475 -6.099,-2.773 -12.918,-4.158 -20.458,-4.158 -9.092,0 -17.188,1.939 -24.281,5.821 -7.098,3.88 -12.641,9.423 -16.632,16.632 -3.991,7.206 -5.987,15.634 -5.987,25.28 0,9.646 1.967,18.072 5.904,25.28 3.934,7.206 9.451,12.749 16.548,16.632 7.095,3.88 15.245,5.821 24.448,5.821 8.982,0 16.965,-1.887 23.95,-5.655 6.985,-3.771 12.446,-9.147 16.383,-16.133 3.934,-6.985 5.904,-15.134 5.904,-24.448 0,-2.661 -0.167,-5.434 -0.499,-8.316"
       style="fill:#d109a5;fill-opacity:1;fill-rule:nonzero;stroke:none"
       transform="matrix(0.46600968,0,0,-0.46600968,587.85431,72.772711)"
       clip-path="url(#clipPath30)" />
    <path
       id="path31"
       d="m 0,0 c -3.159,2.936 -4.739,6.569 -4.739,10.893 0,4.434 1.58,8.15 4.739,11.144 3.161,2.994 7.235,4.49 12.224,4.49 4.878,0 8.898,-1.496 12.059,-4.49 3.159,-2.994 4.741,-6.71 4.741,-11.144 C 29.024,6.569 27.442,2.936 24.283,0 21.122,-2.939 17.102,-4.407 12.224,-4.407 7.235,-4.407 3.161,-2.939 0,0"
       style="fill:#d109a5;fill-opacity:1;fill-rule:nonzero;stroke:none"
       transform="matrix(0.46600968,0,0,-0.46600968,608.89688,97.147954)"
       clip-path="url(#clipPath32)" />
  </g>
</svg>
